<?xml version="1.0" standalone="no"?><svg xmlns:xlink="http://www.w3.org/1999/xlink" xmlns="http://www.w3.org/2000/svg" viewBox="0 0 1000 714.3207681947315" preserveAspectRatio="xMaxYMax slice"><g transform="scale(5.452830291562836)"><rect x="0" y="0" width="183.4" height="131" fill="#424242"/><rect x="0" y="0" width="26.2" height="26.2" fill="#424242"/><rect x="0" y="0" width="13.1" height="13.1" fill="#fe33ac"/><polygon points="0,0 13.1,0 13.1,13.1" fill="#943c70"/><rect x="13.1" y="0" width="13.1" height="13.1" fill="#3a4862"/><polygon points="26.2,0 26.2,13.1 13.1,13.1" fill="#2c5396"/><rect x="0" y="13.1" width="13.1" height="13.1" fill="#51414b"/><polygon points="0,13.1 13.1,26.2 0,26.2" fill="#bb3887"/><rect x="13.1" y="13.1" width="13.1" height="13.1" fill="#b13981"/><polygon points="13.1,13.1 26.2,13.1 26.2,26.2" fill="#1c5fd1"/><rect x="26.2" y="0" width="26.2" height="26.2" fill="#424242"/><rect x="26.2" y="0" width="13.1" height="13.1" fill="#1f5cc5"/><polygon points="26.2,0 39.3,0 39.3,13.1" fill="#1e5dca"/><rect x="39.3" y="0" width="13.1" height="13.1" fill="#205cc4"/><polygon points="39.3,0 52.4,13.1 39.3,13.1" fill="#5e4052"/><rect x="26.2" y="13.1" width="13.1" height="13.1" fill="#205cc5"/><polygon points="39.3,13.1 39.3,26.2 26.2,26.2" fill="#474245"/><rect x="39.3" y="13.1" width="13.1" height="13.1" fill="#af3980"/><polygon points="39.3,13.1 52.4,26.2 39.3,26.2" fill="#6c3f5a"/><rect x="52.4" y="0" width="26.2" height="26.2" fill="#8e3c6d"/><polygon points="52.4,0 78.6,0 52.4,26.2" fill="#2657ab"/><rect x="78.6" y="0" width="26.2" height="26.2" fill="#424242"/><rect x="78.6" y="0" width="13.1" height="13.1" fill="#314f83"/><polygon points="78.6,0 91.69999999999999,13.1 78.6,13.1" fill="#59404f"/><rect x="91.7" y="0" width="13.1" height="13.1" fill="#305086"/><polygon points="91.7,0 104.8,0 91.7,13.1" fill="#3b475c"/><rect x="78.6" y="13.1" width="13.1" height="13.1" fill="#1a60da"/><polygon points="91.69999999999999,13.1 91.69999999999999,26.2 78.6,26.2" fill="#e5359e"/><rect x="91.7" y="13.1" width="13.1" height="13.1" fill="#414348"/><polygon points="104.8,13.1 104.8,26.2 91.7,26.2" fill="#215bc0"/><rect x="104.8" y="0" width="26.2" height="26.2" fill="#9a3b74"/><polygon points="104.8,0 131,0 131,26.2" fill="#bc3887"/><rect x="131" y="0" width="26.2" height="26.2" fill="#424242"/><rect x="131" y="0" width="13.1" height="13.1" fill="#9c3b75"/><polygon points="144.1,0 144.1,13.1 131,13.1" fill="#2657ad"/><rect x="144.1" y="0" width="13.1" height="13.1" fill="#55404d"/><polygon points="144.1,0 157.2,0 157.2,13.1" fill="#205cc3"/><rect x="131" y="13.1" width="13.1" height="13.1" fill="#3b475b"/><polygon points="131,13.1 144.1,13.1 131,26.2" fill="#c6388d"/><rect x="144.1" y="13.1" width="13.1" height="13.1" fill="#1961dd"/><polygon points="144.1,13.1 157.2,13.1 157.2,26.2" fill="#2a549e"/><rect x="157.2" y="0" width="26.2" height="26.2" fill="#424242"/><rect x="157.2" y="0" width="13.1" height="13.1" fill="#2f518b"/><polygon points="157.2,0 170.29999999999998,0 170.29999999999998,13.1" fill="#b03980"/><rect x="170.3" y="0" width="13.1" height="13.1" fill="#6d3f5a"/><polygon points="170.3,0 183.4,0 170.3,13.1" fill="#394964"/><rect x="157.2" y="13.1" width="13.1" height="13.1" fill="#fa33aa"/><polygon points="170.29999999999998,13.1 170.29999999999998,26.2 157.2,26.2" fill="#344c76"/><rect x="170.3" y="13.1" width="13.1" height="13.1" fill="#4a4147"/><polygon points="170.3,13.1 183.4,26.2 170.3,26.2" fill="#bb3887"/><rect x="0" y="26.2" width="26.2" height="26.2" fill="#424242"/><rect x="0" y="26.2" width="13.1" height="13.1" fill="#205cc4"/><polygon points="0,26.2 13.1,26.2 0,39.3" fill="#b93986"/><rect x="13.1" y="26.2" width="13.1" height="13.1" fill="#2a549c"/><polygon points="26.2,26.2 26.2,39.3 13.1,39.3" fill="#813d66"/><rect x="0" y="39.3" width="13.1" height="13.1" fill="#3f444d"/><polygon points="0,39.3 13.1,39.3 13.1,52.4" fill="#2c5395"/><rect x="13.1" y="39.3" width="13.1" height="13.1" fill="#d53695"/><polygon points="13.1,39.3 26.2,39.3 26.2,52.4" fill="#cf3792"/><rect x="26.2" y="26.2" width="26.2" height="26.2" fill="#be3888"/><polygon points="26.2,26.2 52.4,26.2 26.2,52.4" fill="#2d5293"/><rect x="52.4" y="26.2" width="26.2" height="26.2" fill="#424242"/><rect x="52.4" y="26.2" width="13.1" height="13.1" fill="#a53a7a"/><polygon points="52.4,26.2 65.5,26.2 52.4,39.3" fill="#853d68"/><rect x="65.5" y="26.2" width="13.1" height="13.1" fill="#3c4657"/><polygon points="65.5,26.2 78.6,39.3 65.5,39.3" fill="#1b60d7"/><rect x="52.4" y="39.3" width="13.1" height="13.1" fill="#8a3c6b"/><polygon points="52.4,39.3 65.5,39.3 65.5,52.4" fill="#53414c"/><rect x="65.5" y="39.3" width="13.1" height="13.1" fill="#2d5291"/><polygon points="78.6,39.3 78.6,52.4 65.5,52.4" fill="#823d66"/><rect x="78.6" y="26.2" width="26.2" height="26.2" fill="#444243"/><polygon points="78.6,26.2 104.8,26.2 78.6,52.4" fill="#9e3b76"/><rect x="104.8" y="26.2" width="26.2" height="26.2" fill="#424242"/><rect x="104.8" y="26.2" width="13.1" height="13.1" fill="#2e518d"/><polygon points="104.8,26.2 117.89999999999999,26.2 117.89999999999999,39.3" fill="#d73696"/><rect x="117.9" y="26.2" width="13.1" height="13.1" fill="#a53a7a"/><polygon points="117.9,26.2 131,39.3 117.9,39.3" fill="#2f508a"/><rect x="104.8" y="39.3" width="13.1" height="13.1" fill="#614054"/><polygon points="104.8,39.3 117.89999999999999,52.4 104.8,52.4" fill="#384967"/><rect x="117.9" y="39.3" width="13.1" height="13.1" fill="#1b5fd5"/><polygon points="117.9,39.3 131,52.4 117.9,52.4" fill="#384a68"/><rect x="131" y="26.2" width="26.2" height="26.2" fill="#f434a7"/><polygon points="131,26.2 157.2,26.2 157.2,52.4" fill="#2955a1"/><rect x="157.2" y="26.2" width="26.2" height="26.2" fill="#205cc3"/><polygon points="183.39999999999998,26.2 183.39999999999998,52.4 157.2,52.4" fill="#614053"/><rect x="0" y="52.4" width="26.2" height="26.2" fill="#354c75"/><polygon points="0,52.4 26.2,52.4 0,78.6" fill="#af397f"/><rect x="26.2" y="52.4" width="26.2" height="26.2" fill="#993b73"/><polygon points="52.4,52.4 52.4,78.6 26.2,78.6" fill="#5a4050"/><rect x="52.4" y="52.4" width="26.2" height="26.2" fill="#424242"/><rect x="52.4" y="52.4" width="13.1" height="13.1" fill="#713e5d"/><polygon points="52.4,52.4 65.5,65.5 52.4,65.5" fill="#394965"/><rect x="65.5" y="52.4" width="13.1" height="13.1" fill="#3f444c"/><polygon points="65.5,52.4 78.6,65.5 65.5,65.5" fill="#2a549c"/><rect x="52.4" y="65.5" width="13.1" height="13.1" fill="#f434a7"/><polygon points="65.5,65.5 65.5,78.6 52.4,78.6" fill="#2f518b"/><rect x="65.5" y="65.5" width="13.1" height="13.1" fill="#2459b3"/><polygon points="65.5,65.5 78.6,78.6 65.5,78.6" fill="#c6388d"/><rect x="78.6" y="52.4" width="26.2" height="26.2" fill="#424242"/><rect x="78.6" y="52.4" width="13.1" height="13.1" fill="#394862"/><polygon points="78.6,52.4 91.69999999999999,52.4 78.6,65.5" fill="#c03889"/><rect x="91.7" y="52.4" width="13.1" height="13.1" fill="#883c69"/><polygon points="91.7,52.4 104.8,52.4 104.8,65.5" fill="#205cc3"/><rect x="78.6" y="65.5" width="13.1" height="13.1" fill="#3f444d"/><polygon points="91.69999999999999,65.5 91.69999999999999,78.6 78.6,78.6" fill="#d63696"/><rect x="91.7" y="65.5" width="13.1" height="13.1" fill="#235ab9"/><polygon points="91.7,65.5 104.8,78.6 91.7,78.6" fill="#943c70"/><rect x="104.8" y="52.4" width="26.2" height="26.2" fill="#424242"/><rect x="104.8" y="52.4" width="13.1" height="13.1" fill="#eb35a2"/><polygon points="104.8,52.4 117.89999999999999,52.4 117.89999999999999,65.5" fill="#fc33ab"/><rect x="117.9" y="52.4" width="13.1" height="13.1" fill="#f933aa"/><polygon points="117.9,52.4 131,52.4 131,65.5" fill="#1b60d6"/><rect x="104.8" y="65.5" width="13.1" height="13.1" fill="#913c6f"/><polygon points="104.8,65.5 117.89999999999999,65.5 104.8,78.6" fill="#3b475c"/><rect x="117.9" y="65.5" width="13.1" height="13.1" fill="#55414d"/><polygon points="117.9,65.5 131,65.5 131,78.6" fill="#2b549b"/><rect x="131" y="52.4" width="26.2" height="26.2" fill="#424242"/><rect x="131" y="52.4" width="13.1" height="13.1" fill="#384a68"/><polygon points="131,52.4 144.1,52.4 144.1,65.5" fill="#344d77"/><rect x="144.1" y="52.4" width="13.1" height="13.1" fill="#424242"/><polygon points="157.2,52.4 157.2,65.5 144.1,65.5" fill="#394965"/><rect x="131" y="65.5" width="13.1" height="13.1" fill="#5e4052"/><polygon points="144.1,65.5 144.1,78.6 131,78.6" fill="#803d65"/><rect x="144.1" y="65.5" width="13.1" height="13.1" fill="#c3388b"/><polygon points="144.1,65.5 157.2,78.6 144.1,78.6" fill="#2955a1"/><rect x="157.2" y="52.4" width="26.2" height="26.2" fill="#424242"/><rect x="157.2" y="52.4" width="13.1" height="13.1" fill="#374a6b"/><polygon points="170.29999999999998,52.4 170.29999999999998,65.5 157.2,65.5" fill="#8f3c6e"/><rect x="170.3" y="52.4" width="13.1" height="13.1" fill="#1862e1"/><polygon points="183.4,52.4 183.4,65.5 170.3,65.5" fill="#aa3a7d"/><rect x="157.2" y="65.5" width="13.1" height="13.1" fill="#2f518c"/><polygon points="157.2,65.5 170.29999999999998,78.6 157.2,78.6" fill="#973b72"/><rect x="170.3" y="65.5" width="13.1" height="13.1" fill="#374a6a"/><polygon points="183.4,65.5 183.4,78.6 170.3,78.6" fill="#1d5ece"/><rect x="0" y="78.6" width="26.2" height="26.2" fill="#424242"/><rect x="0" y="78.6" width="13.1" height="13.1" fill="#305087"/><polygon points="0,78.6 13.1,78.6 0,91.69999999999999" fill="#314f83"/><rect x="13.1" y="78.6" width="13.1" height="13.1" fill="#334d7a"/><polygon points="13.1,78.6 26.2,91.69999999999999 13.1,91.69999999999999" fill="#3c4658"/><rect x="0" y="91.7" width="13.1" height="13.1" fill="#693f58"/><polygon points="0,91.7 13.1,91.7 13.1,104.8" fill="#aa3a7d"/><rect x="13.1" y="91.7" width="13.1" height="13.1" fill="#f834a9"/><polygon points="26.2,91.7 26.2,104.8 13.1,104.8" fill="#614054"/><rect x="26.2" y="78.6" width="26.2" height="26.2" fill="#424242"/><rect x="26.2" y="78.6" width="13.1" height="13.1" fill="#1d5ecf"/><polygon points="39.3,78.6 39.3,91.69999999999999 26.2,91.69999999999999" fill="#d83697"/><rect x="39.3" y="78.6" width="13.1" height="13.1" fill="#215bc1"/><polygon points="39.3,78.6 52.4,91.69999999999999 39.3,91.69999999999999" fill="#324f81"/><rect x="26.2" y="91.7" width="13.1" height="13.1" fill="#d33794"/><polygon points="26.2,91.7 39.3,91.7 26.2,104.8" fill="#1a60d9"/><rect x="39.3" y="91.7" width="13.1" height="13.1" fill="#6c3f5a"/><polygon points="39.3,91.7 52.4,91.7 39.3,104.8" fill="#57404e"/><rect x="52.4" y="78.6" width="26.2" height="26.2" fill="#364b6e"/><polygon points="52.4,78.6 78.6,104.8 52.4,104.8" fill="#40444b"/><rect x="78.6" y="78.6" width="26.2" height="26.2" fill="#424242"/><rect x="78.6" y="78.6" width="13.1" height="13.1" fill="#3c4658"/><polygon points="78.6,78.6 91.69999999999999,78.6 91.69999999999999,91.69999999999999" fill="#eb35a2"/><rect x="91.7" y="78.6" width="13.1" height="13.1" fill="#4c4147"/><polygon points="91.7,78.6 104.8,78.6 104.8,91.69999999999999" fill="#1e5dca"/><rect x="78.6" y="91.7" width="13.1" height="13.1" fill="#1c5fd4"/><polygon points="78.6,91.7 91.69999999999999,91.7 91.69999999999999,104.8" fill="#314f83"/><rect x="91.7" y="91.7" width="13.1" height="13.1" fill="#3d4655"/><polygon points="91.7,91.7 104.8,91.7 91.7,104.8" fill="#205cc5"/><rect x="104.8" y="78.6" width="26.2" height="26.2" fill="#424242"/><rect x="104.8" y="78.6" width="13.1" height="13.1" fill="#2856a5"/><polygon points="104.8,78.6 117.89999999999999,78.6 104.8,91.69999999999999" fill="#3f444e"/><rect x="117.9" y="78.6" width="13.1" height="13.1" fill="#305086"/><polygon points="117.9,78.6 131,78.6 131,91.69999999999999" fill="#db3698"/><rect x="104.8" y="91.7" width="13.1" height="13.1" fill="#2558af"/><polygon points="104.8,91.7 117.89999999999999,91.7 104.8,104.8" fill="#1961de"/><rect x="117.9" y="91.7" width="13.1" height="13.1" fill="#414345"/><polygon points="117.9,91.7 131,104.8 117.9,104.8" fill="#2459b4"/><rect x="131" y="78.6" width="26.2" height="26.2" fill="#374a6c"/><polygon points="131,78.6 157.2,104.8 131,104.8" fill="#f034a4"/><rect x="157.2" y="78.6" width="26.2" height="26.2" fill="#424242"/><rect x="157.2" y="78.6" width="13.1" height="13.1" fill="#8e3c6d"/><polygon points="157.2,78.6 170.29999999999998,78.6 157.2,91.69999999999999" fill="#394966"/><rect x="170.3" y="78.6" width="13.1" height="13.1" fill="#3c4658"/><polygon points="170.3,78.6 183.4,91.69999999999999 170.3,91.69999999999999" fill="#364b71"/><rect x="157.2" y="91.7" width="13.1" height="13.1" fill="#2757a9"/><polygon points="157.2,91.7 170.29999999999998,104.8 157.2,104.8" fill="#205cc5"/><rect x="170.3" y="91.7" width="13.1" height="13.1" fill="#324e7f"/><polygon points="170.3,91.7 183.4,91.7 183.4,104.8" fill="#ee34a3"/><rect x="0" y="104.8" width="26.2" height="26.2" fill="#424242"/><rect x="0" y="104.8" width="13.1" height="13.1" fill="#743e5e"/><polygon points="0,104.8 13.1,104.8 0,117.89999999999999" fill="#59404f"/><rect x="13.1" y="104.8" width="13.1" height="13.1" fill="#404348"/><polygon points="13.1,104.8 26.2,104.8 13.1,117.89999999999999" fill="#205cc3"/><rect x="0" y="117.9" width="13.1" height="13.1" fill="#305087"/><polygon points="0,117.9 13.1,117.9 13.1,131" fill="#215bbf"/><rect x="13.1" y="117.9" width="13.1" height="13.1" fill="#2757aa"/><polygon points="13.1,117.9 26.2,117.9 13.1,131" fill="#2558af"/><rect x="26.2" y="104.8" width="26.2" height="26.2" fill="#424242"/><rect x="26.2" y="104.8" width="13.1" height="13.1" fill="#394966"/><polygon points="26.2,104.8 39.3,104.8 39.3,117.89999999999999" fill="#2359b6"/><rect x="39.3" y="104.8" width="13.1" height="13.1" fill="#1d5ece"/><polygon points="52.4,104.8 52.4,117.89999999999999 39.3,117.89999999999999" fill="#3b475b"/><rect x="26.2" y="117.9" width="13.1" height="13.1" fill="#54414c"/><polygon points="39.3,117.9 39.3,131 26.2,131" fill="#344d77"/><rect x="39.3" y="117.9" width="13.1" height="13.1" fill="#873d69"/><polygon points="39.3,117.9 52.4,117.9 52.4,131" fill="#1961df"/><rect x="52.4" y="104.8" width="26.2" height="26.2" fill="#424242"/><rect x="52.4" y="104.8" width="13.1" height="13.1" fill="#a83a7c"/><polygon points="52.4,104.8 65.5,117.89999999999999 52.4,117.89999999999999" fill="#863d68"/><rect x="65.5" y="104.8" width="13.1" height="13.1" fill="#bc3887"/><polygon points="78.6,104.8 78.6,117.89999999999999 65.5,117.89999999999999" fill="#d93698"/><rect x="52.4" y="117.9" width="13.1" height="13.1" fill="#fd33ac"/><polygon points="65.5,117.9 65.5,131 52.4,131" fill="#b73984"/><rect x="65.5" y="117.9" width="13.1" height="13.1" fill="#893c6a"/><polygon points="65.5,117.9 78.6,117.9 78.6,131" fill="#334d7a"/><rect x="78.6" y="104.8" width="26.2" height="26.2" fill="#424242"/><rect x="78.6" y="104.8" width="13.1" height="13.1" fill="#354c73"/><polygon points="78.6,104.8 91.69999999999999,104.8 78.6,117.89999999999999" fill="#364b6f"/><rect x="91.7" y="104.8" width="13.1" height="13.1" fill="#d43694"/><polygon points="91.7,104.8 104.8,104.8 104.8,117.89999999999999" fill="#2b549b"/><rect x="78.6" y="117.9" width="13.1" height="13.1" fill="#305086"/><polygon points="91.69999999999999,117.9 91.69999999999999,131 78.6,131" fill="#304f85"/><rect x="91.7" y="117.9" width="13.1" height="13.1" fill="#cf3792"/><polygon points="91.7,117.9 104.8,131 91.7,131" fill="#673f57"/><rect x="104.8" y="104.8" width="26.2" height="26.2" fill="#424242"/><rect x="104.8" y="104.8" width="13.1" height="13.1" fill="#9b3b74"/><polygon points="104.8,104.8 117.89999999999999,104.8 104.8,117.89999999999999" fill="#843d67"/><rect x="117.9" y="104.8" width="13.1" height="13.1" fill="#1b60d7"/><polygon points="117.9,104.8 131,117.89999999999999 117.9,117.89999999999999" fill="#2b549a"/><rect x="104.8" y="117.9" width="13.1" height="13.1" fill="#2d5294"/><polygon points="104.8,117.9 117.89999999999999,131 104.8,131" fill="#1a60da"/><rect x="117.9" y="117.9" width="13.1" height="13.1" fill="#3d4655"/><polygon points="117.9,117.9 131,117.9 131,131" fill="#314f83"/><rect x="131" y="104.8" width="26.2" height="26.2" fill="#424242"/><rect x="131" y="104.8" width="13.1" height="13.1" fill="#1d5ece"/><polygon points="144.1,104.8 144.1,117.89999999999999 131,117.89999999999999" fill="#344d77"/><rect x="144.1" y="104.8" width="13.1" height="13.1" fill="#fc33ab"/><polygon points="157.2,104.8 157.2,117.89999999999999 144.1,117.89999999999999" fill="#fa33aa"/><rect x="131" y="117.9" width="13.1" height="13.1" fill="#3d4654"/><polygon points="131,117.9 144.1,131 131,131" fill="#bb3886"/><rect x="144.1" y="117.9" width="13.1" height="13.1" fill="#2657ab"/><polygon points="157.2,117.9 157.2,131 144.1,131" fill="#653f56"/><rect x="157.2" y="104.8" width="26.2" height="26.2" fill="#51414b"/><polygon points="157.2,104.8 183.39999999999998,104.8 157.2,131" fill="#b33982"/></g></svg>