<?xml version="1.0" standalone="no"?><svg xmlns:xlink="http://www.w3.org/1999/xlink" xmlns="http://www.w3.org/2000/svg" viewBox="0 0 1000 400" preserveAspectRatio="xMaxYMax slice"><g transform="scale(2.127659574468085)"><rect x="0" y="0" width="470" height="188" fill="#424242"/><rect x="0" y="0" width="94" height="94" fill="#424242"/><rect x="0" y="0" width="47" height="47" fill="#59404f"/><polygon points="0,0 47,0 47,47" fill="#d73696"/><rect x="47" y="0" width="47" height="47" fill="#cc3790"/><polygon points="47,0 94,47 47,47" fill="#1961df"/><rect x="0" y="47" width="47" height="47" fill="#3b485e"/><polygon points="0,47 47,47 0,94" fill="#d83697"/><rect x="47" y="47" width="47" height="47" fill="#3f454f"/><polygon points="47,47 94,47 47,94" fill="#b53983"/><rect x="94" y="0" width="94" height="94" fill="#424242"/><rect x="94" y="0" width="47" height="47" fill="#1d5ed0"/><polygon points="94,0 141,0 141,47" fill="#6b3f59"/><rect x="141" y="0" width="47" height="47" fill="#ce3791"/><polygon points="141,0 188,0 141,47" fill="#b03980"/><rect x="94" y="47" width="47" height="47" fill="#7e3d64"/><polygon points="94,47 141,94 94,94" fill="#ef34a4"/><rect x="141" y="47" width="47" height="47" fill="#fc33ab"/><polygon points="141,47 188,94 141,94" fill="#783e61"/><rect x="188" y="0" width="94" height="94" fill="#424242"/><rect x="188" y="0" width="47" height="47" fill="#334e7c"/><polygon points="188,0 235,47 188,47" fill="#af3980"/><rect x="235" y="0" width="47" height="47" fill="#2f5089"/><polygon points="235,0 282,47 235,47" fill="#364b70"/><rect x="188" y="47" width="47" height="47" fill="#e6359f"/><polygon points="188,47 235,47 235,94" fill="#2c5396"/><rect x="235" y="47" width="47" height="47" fill="#cc3790"/><polygon points="235,47 282,47 282,94" fill="#df369b"/><rect x="282" y="0" width="94" height="94" fill="#773e60"/><polygon points="282,0 376,94 282,94" fill="#c8378e"/><rect x="376" y="0" width="94" height="94" fill="#2856a6"/><polygon points="376,0 470,94 376,94" fill="#e4359e"/><rect x="0" y="94" width="94" height="94" fill="#5a404f"/><polygon points="94,94 94,188 0,188" fill="#d13793"/><rect x="94" y="94" width="94" height="94" fill="#424242"/><rect x="94" y="94" width="47" height="47" fill="#7c3d63"/><polygon points="94,94 141,141 94,141" fill="#853d68"/><rect x="141" y="94" width="47" height="47" fill="#614053"/><polygon points="141,94 188,141 141,141" fill="#d83697"/><rect x="94" y="141" width="47" height="47" fill="#2856a6"/><polygon points="94,141 141,188 94,188" fill="#57404e"/><rect x="141" y="141" width="47" height="47" fill="#2b5398"/><polygon points="188,141 188,188 141,188" fill="#1961dd"/><rect x="188" y="94" width="94" height="94" fill="#424242"/><rect x="188" y="94" width="47" height="47" fill="#404349"/><polygon points="188,94 235,141 188,141" fill="#633f55"/><rect x="235" y="94" width="47" height="47" fill="#3b485e"/><polygon points="235,94 282,94 282,141" fill="#314f81"/><rect x="188" y="141" width="47" height="47" fill="#7a3e61"/><polygon points="188,141 235,141 188,188" fill="#a93a7c"/><rect x="235" y="141" width="47" height="47" fill="#205cc5"/><polygon points="235,141 282,141 235,188" fill="#5e4052"/><rect x="282" y="94" width="94" height="94" fill="#354c75"/><polygon points="376,94 376,188 282,188" fill="#2856a6"/><rect x="376" y="94" width="94" height="94" fill="#b63984"/><polygon points="470,94 470,188 376,188" fill="#ea35a1"/></g></svg>