<?xml version="1.0" standalone="no"?><svg xmlns:xlink="http://www.w3.org/1999/xlink" xmlns="http://www.w3.org/2000/svg" viewBox="0 0 1000 400" preserveAspectRatio="xMaxYMax slice"><g transform="scale(2.127659574468085)"><rect x="0" y="0" width="470" height="188" fill="#424242"/><rect x="0" y="0" width="94" height="94" fill="#424242"/><rect x="0" y="0" width="47" height="47" fill="#2b549a"/><polygon points="0,0 47,0 47,47" fill="#2558b2"/><rect x="47" y="0" width="47" height="47" fill="#3a4862"/><polygon points="47,0 94,0 94,47" fill="#205cc3"/><rect x="0" y="47" width="47" height="47" fill="#1961dd"/><polygon points="0,47 47,47 47,94" fill="#2a549d"/><rect x="47" y="47" width="47" height="47" fill="#394862"/><polygon points="47,47 94,47 94,94" fill="#b33982"/><rect x="94" y="0" width="94" height="94" fill="#344d77"/><polygon points="94,0 188,0 94,94" fill="#6d3f5a"/><rect x="188" y="0" width="94" height="94" fill="#424242"/><rect x="188" y="0" width="47" height="47" fill="#614053"/><polygon points="235,0 235,47 188,47" fill="#324e7e"/><rect x="235" y="0" width="47" height="47" fill="#6d3f5a"/><polygon points="235,0 282,0 282,47" fill="#f234a6"/><rect x="188" y="47" width="47" height="47" fill="#1962e0"/><polygon points="235,47 235,94 188,94" fill="#305086"/><rect x="235" y="47" width="47" height="47" fill="#3a4862"/><polygon points="282,47 282,94 235,94" fill="#374a6a"/><rect x="282" y="0" width="94" height="94" fill="#424242"/><rect x="282" y="0" width="47" height="47" fill="#3a485f"/><polygon points="282,0 329,0 282,47" fill="#215bc0"/><rect x="329" y="0" width="47" height="47" fill="#3f454f"/><polygon points="329,0 376,47 329,47" fill="#933c70"/><rect x="282" y="47" width="47" height="47" fill="#783e60"/><polygon points="329,47 329,94 282,94" fill="#953b71"/><rect x="329" y="47" width="47" height="47" fill="#354c75"/><polygon points="376,47 376,94 329,94" fill="#344d78"/><rect x="376" y="0" width="94" height="94" fill="#1f5dc7"/><polygon points="376,0 470,94 376,94" fill="#344d77"/><rect x="0" y="94" width="94" height="94" fill="#d63696"/><polygon points="94,94 94,188 0,188" fill="#bc3887"/><rect x="94" y="94" width="94" height="94" fill="#db3699"/><polygon points="188,94 188,188 94,188" fill="#b53983"/><rect x="188" y="94" width="94" height="94" fill="#424242"/><rect x="188" y="94" width="47" height="47" fill="#9f3b76"/><polygon points="188,94 235,94 235,141" fill="#2657ad"/><rect x="235" y="94" width="47" height="47" fill="#d43695"/><polygon points="235,94 282,94 235,141" fill="#933c70"/><rect x="188" y="141" width="47" height="47" fill="#823d66"/><polygon points="235,141 235,188 188,188" fill="#40444a"/><rect x="235" y="141" width="47" height="47" fill="#205cc2"/><polygon points="235,141 282,188 235,188" fill="#f234a6"/><rect x="282" y="94" width="94" height="94" fill="#424242"/><rect x="282" y="94" width="47" height="47" fill="#384967"/><polygon points="282,94 329,141 282,141" fill="#d93698"/><rect x="329" y="94" width="47" height="47" fill="#314f84"/><polygon points="329,94 376,94 329,141" fill="#334d7a"/><rect x="282" y="141" width="47" height="47" fill="#ec34a2"/><polygon points="282,141 329,141 282,188" fill="#444243"/><rect x="329" y="141" width="47" height="47" fill="#2d5292"/><polygon points="376,141 376,188 329,188" fill="#354c75"/><rect x="376" y="94" width="94" height="94" fill="#424242"/><rect x="376" y="94" width="47" height="47" fill="#843d67"/><polygon points="423,94 423,141 376,141" fill="#ce3791"/><rect x="423" y="94" width="47" height="47" fill="#2c5396"/><polygon points="423,94 470,141 423,141" fill="#dc3699"/><rect x="376" y="141" width="47" height="47" fill="#334d7a"/><polygon points="376,141 423,188 376,188" fill="#e835a0"/><rect x="423" y="141" width="47" height="47" fill="#5d4051"/><polygon points="423,141 470,141 423,188" fill="#de369a"/></g></svg>