<?xml version="1.0" standalone="no"?><svg xmlns:xlink="http://www.w3.org/1999/xlink" xmlns="http://www.w3.org/2000/svg" viewBox="0 0 1000 400" preserveAspectRatio="xMaxYMax slice"><g transform="scale(2.127659574468085)"><rect x="0" y="0" width="470" height="188" fill="#424242"/><rect x="0" y="0" width="94" height="94" fill="#1c5fd2"/><polygon points="94,0 94,94 0,94" fill="#1f5dc8"/><rect x="94" y="0" width="94" height="94" fill="#305087"/><polygon points="94,0 188,0 188,94" fill="#793e61"/><rect x="188" y="0" width="94" height="94" fill="#424242"/><rect x="188" y="0" width="47" height="47" fill="#3a4862"/><polygon points="188,0 235,0 235,47" fill="#2d5291"/><rect x="235" y="0" width="47" height="47" fill="#205cc2"/><polygon points="235,0 282,0 282,47" fill="#235ab8"/><rect x="188" y="47" width="47" height="47" fill="#394862"/><polygon points="188,47 235,47 235,94" fill="#354c72"/><rect x="235" y="47" width="47" height="47" fill="#3c4759"/><polygon points="282,47 282,94 235,94" fill="#fe33ad"/><rect x="282" y="0" width="94" height="94" fill="#f234a6"/><polygon points="282,0 376,0 282,94" fill="#1b60d6"/><rect x="376" y="0" width="94" height="94" fill="#2e518f"/><polygon points="376,0 470,0 376,94" fill="#a03b77"/><rect x="0" y="94" width="94" height="94" fill="#8e3c6d"/><polygon points="0,94 94,188 0,188" fill="#414244"/><rect x="94" y="94" width="94" height="94" fill="#e4359e"/><polygon points="94,94 188,94 188,188" fill="#424243"/><rect x="188" y="94" width="94" height="94" fill="#384a68"/><polygon points="188,94 282,94 188,188" fill="#56404d"/><rect x="282" y="94" width="94" height="94" fill="#424242"/><rect x="282" y="94" width="47" height="47" fill="#3a4862"/><polygon points="282,94 329,94 282,141" fill="#af3980"/><rect x="329" y="94" width="47" height="47" fill="#6b3f59"/><polygon points="329,94 376,141 329,141" fill="#e3359d"/><rect x="282" y="141" width="47" height="47" fill="#3c4658"/><polygon points="282,141 329,141 282,188" fill="#1862e2"/><rect x="329" y="141" width="47" height="47" fill="#324e80"/><polygon points="329,141 376,188 329,188" fill="#235ab8"/><rect x="376" y="94" width="94" height="94" fill="#be3888"/><polygon points="376,94 470,188 376,188" fill="#fe33ac"/></g></svg>