<?xml version="1.0" standalone="no"?><svg xmlns:xlink="http://www.w3.org/1999/xlink" xmlns="http://www.w3.org/2000/svg" viewBox="0 0 1000 400" preserveAspectRatio="xMaxYMax slice"><g transform="scale(2.127659574468085)"><rect x="0" y="0" width="470" height="188" fill="#424242"/><rect x="0" y="0" width="94" height="94" fill="#ec35a2"/><polygon points="0,0 94,0 94,94" fill="#783e61"/><rect x="94" y="0" width="94" height="94" fill="#424242"/><rect x="94" y="0" width="47" height="47" fill="#f434a7"/><polygon points="94,0 141,47 94,47" fill="#6e3f5b"/><rect x="141" y="0" width="47" height="47" fill="#2756a8"/><polygon points="188,0 188,47 141,47" fill="#56404d"/><rect x="94" y="47" width="47" height="47" fill="#2657ac"/><polygon points="94,47 141,94 94,94" fill="#3d4654"/><rect x="141" y="47" width="47" height="47" fill="#e2359d"/><polygon points="188,47 188,94 141,94" fill="#354c75"/><rect x="188" y="0" width="94" height="94" fill="#424242"/><rect x="188" y="0" width="47" height="47" fill="#2359b7"/><polygon points="188,0 235,0 188,47" fill="#2757a9"/><rect x="235" y="0" width="47" height="47" fill="#1d5ece"/><polygon points="235,0 282,0 235,47" fill="#2e5290"/><rect x="188" y="47" width="47" height="47" fill="#2f518c"/><polygon points="188,47 235,47 235,94" fill="#a13a78"/><rect x="235" y="47" width="47" height="47" fill="#334e7c"/><polygon points="235,47 282,47 282,94" fill="#1961df"/><rect x="282" y="0" width="94" height="94" fill="#3d4654"/><polygon points="376,0 376,94 282,94" fill="#3a4862"/><rect x="376" y="0" width="94" height="94" fill="#424242"/><rect x="376" y="0" width="47" height="47" fill="#bc3887"/><polygon points="423,0 423,47 376,47" fill="#1f5cc6"/><rect x="423" y="0" width="47" height="47" fill="#753e5f"/><polygon points="470,0 470,47 423,47" fill="#374b6d"/><rect x="376" y="47" width="47" height="47" fill="#dc3699"/><polygon points="423,47 423,94 376,94" fill="#1961dd"/><rect x="423" y="47" width="47" height="47" fill="#773e60"/><polygon points="423,47 470,47 470,94" fill="#ee34a4"/><rect x="0" y="94" width="94" height="94" fill="#2b549b"/><polygon points="0,94 94,94 0,188" fill="#963b71"/><rect x="94" y="94" width="94" height="94" fill="#424242"/><rect x="94" y="94" width="47" height="47" fill="#3c4657"/><polygon points="94,94 141,94 141,141" fill="#aa3a7d"/><rect x="141" y="94" width="47" height="47" fill="#205cc5"/><polygon points="141,94 188,141 141,141" fill="#384967"/><rect x="94" y="141" width="47" height="47" fill="#b03980"/><polygon points="94,141 141,141 141,188" fill="#215bbe"/><rect x="141" y="141" width="47" height="47" fill="#9e3b76"/><polygon points="141,141 188,141 141,188" fill="#2d5291"/><rect x="188" y="94" width="94" height="94" fill="#334d7a"/><polygon points="188,94 282,94 188,188" fill="#b13981"/><rect x="282" y="94" width="94" height="94" fill="#354c74"/><polygon points="282,94 376,188 282,188" fill="#205cc4"/><rect x="376" y="94" width="94" height="94" fill="#2d5293"/><polygon points="376,94 470,188 376,188" fill="#444243"/></g></svg>